<svg width="100%" height="100%" viewBox="0 0 1275 375" version="1.1" xmlns="http://www.w3.org/2000/svg" xmlns:xlink="http://www.w3.org/1999/xlink" xml:space="preserve" xmlns:serif="http://www.serif.com/" style="fill-rule:evenodd;clip-rule:evenodd;stroke-linejoin:round;stroke-miterlimit:2;"><g><rect x="64.249" y="72.406" width="11.528" height="1.059" style="fill:#fff;"/><rect x="74.927" y="72.406" width="11.525" height="1.059" style="fill:#fff;"/><rect x="85.605" y="72.406" width="11.525" height="1.059" style="fill:#fff;"/><rect x="96.283" y="72.406" width="11.528" height="1.059" style="fill:#fff;"/><rect x="106.961" y="72.406" width="11.525" height="1.059" style="fill:#fff;"/><rect x="117.636" y="72.406" width="11.528" height="1.059" style="fill:#fff;"/><rect x="128.317" y="72.406" width="11.525" height="1.059" style="fill:#fff;"/><rect x="138.995" y="72.406" width="11.525" height="1.059" style="fill:#fff;"/><rect x="149.67" y="72.406" width="11.525" height="1.059" style="fill:#fff;"/><rect x="160.352" y="72.406" width="11.525" height="1.059" style="fill:#fff;"/><rect x="171.027" y="72.406" width="11.525" height="1.059" style="fill:#fff;"/><rect x="181.705" y="72.406" width="11.525" height="1.059" style="fill:#fff;"/><path d="M271.002,61.409l1.062,0l0,27.462l-1.062,0l0,-27.462Zm1.912,-7.916c0,0.744 -0.637,1.382 -1.381,1.382c-0.744,0 -1.381,-0.638 -1.381,-1.382c0,-0.74 0.637,-1.381 1.381,-1.381c0.744,0 1.381,0.641 1.381,1.381" style="fill:#fff;fill-rule:nonzero;"/><path d="M349.677,72.246l0,16.625l-1.063,0l0,-16.625c0,-6.163 -3.612,-9.775 -9.722,-9.775c-6.853,0.159 -11.047,4.409 -11.578,11.475l0,14.925l-1.065,0l0,-27.463l1.065,0l0,7.757c1.75,-4.835 5.841,-7.65 11.578,-7.757c6.8,0 10.785,4.038 10.785,10.838" style="fill:#fff;fill-rule:nonzero;"/><path d="M415.075,86.906c-1.594,1.222 -3.454,1.913 -5.419,1.966c-3.825,0.053 -5.844,-2.55 -5.844,-7.544l0,-18.325l-4.037,0l0,-1.062l4.037,0l0,-6.535l1.063,0l0,6.535l9.668,0l0,1.062l-9.668,0l0,18.325c0,4.25 1.646,6.535 4.781,6.482c1.7,-0.057 3.4,-0.638 4.781,-1.754l0.638,0.85Z" style="fill:#fff;fill-rule:nonzero;"/><path d="M462.198,74.052l23.797,0c-0.478,-6.853 -4.884,-11.581 -11.684,-11.581c-6.694,0 -11.635,4.728 -12.113,11.581m21.832,9.772l0.746,0.744c-2.5,2.709 -6.215,4.303 -10.465,4.303c-7.597,0 -13.228,-5.737 -13.228,-13.756c0,-7.969 5.631,-13.706 13.228,-13.706c7.65,0 12.75,5.737 12.75,13.706l-24.916,0c0,7.487 5.1,12.694 12.166,12.694c3.984,0 7.434,-1.435 9.719,-3.985" style="fill:#fff;fill-rule:nonzero;"/><path d="M539.017,68.898c1.647,-4.675 5.313,-7.381 10.519,-7.488l0,1.06c-6.219,0.159 -10.041,4.356 -10.519,11.369l0,15.034l-1.062,0l0,-27.463l1.062,0l0,7.488Z" style="fill:#fff;fill-rule:nonzero;"/><path d="M598.408,61.409l1.062,0l0,27.462l-1.062,0l0,-27.462Zm1.916,-7.916c0,0.744 -0.641,1.382 -1.385,1.382c-0.744,0 -1.381,-0.638 -1.381,-1.382c0,-0.74 0.637,-1.381 1.381,-1.381c0.744,0 1.385,0.641 1.385,1.381" style="fill:#fff;fill-rule:nonzero;"/><path d="M651.64,75.115c0,7.487 5.15,12.693 12.269,12.693c7.119,0 12.272,-5.206 12.272,-12.693c0,-7.438 -5.153,-12.644 -12.272,-12.644c-7.119,0 -12.269,5.206 -12.269,12.644m25.604,0c0,8.018 -5.685,13.756 -13.335,13.756c-7.647,0 -13.331,-5.738 -13.331,-13.756c0,-7.969 5.684,-13.707 13.331,-13.707c7.65,0 13.335,5.738 13.335,13.707" style="fill:#fff;fill-rule:nonzero;"/><path d="M729.415,68.898c1.646,-4.675 5.312,-7.381 10.515,-7.488l0,1.06c-6.215,0.159 -10.037,4.356 -10.515,11.369l0,15.034l-1.063,0l0,-27.463l1.063,0l0,7.488Z" style="fill:#fff;fill-rule:nonzero;"/><path d="M802.089,63.375l-0.531,0.903c-1.753,-1.116 -4.038,-1.807 -6.747,-1.807c-4.303,0 -7.703,1.7 -7.703,5.419c0,8.235 16.522,4.3 16.522,13.866c0,4.937 -4.463,7.115 -9.244,7.115c-3.825,0 -7.384,-1.381 -9.828,-3.821l0.691,-0.797c2.337,2.281 5.525,3.556 9.137,3.556c4.303,0 8.022,-1.806 8.181,-5.788c0.319,-8.446 -16.522,-4.781 -16.522,-14.025c0,-4.515 3.985,-6.587 8.713,-6.587c2.922,0 5.312,0.797 7.331,1.966" style="fill:#fff;fill-rule:nonzero;"/><path d="M938.298,75.166c0,-7.331 -5.153,-12.693 -12.272,-12.693c-7.115,0 -12.268,5.362 -12.268,12.693c0,7.332 5.153,12.644 12.268,12.644c7.119,0 12.272,-5.312 12.272,-12.644m1.063,0c0,7.916 -5.631,13.707 -13.335,13.707c-5.734,0 -10.303,-3.188 -12.268,-8.075l0,8.075l-1.063,0l0,-39.416l1.063,0l0,20.028c1.965,-4.89 6.534,-8.075 12.268,-8.075c7.704,0 13.335,5.788 13.335,13.756" style="fill:#fff;fill-rule:nonzero;"/><path d="M995.304,92.854c-1.7,4.094 -4.25,6.322 -7.172,6.322c-1.913,0 -3.613,-0.478 -4.888,-1.381l0.478,-0.903c1.169,0.797 2.71,1.225 4.303,1.225c2.71,0 4.994,-2.022 6.429,-5.632l1.381,-3.506l-11.369,-27.572l1.222,0l10.678,26.244l10.519,-26.244l1.275,0l-12.856,31.447Z" style="fill:#fff;fill-rule:nonzero;"/><rect x="1079.24" y="72.406" width="11.525" height="1.063" style="fill:#fff;"/><rect x="1089.92" y="72.406" width="11.525" height="1.063" style="fill:#fff;"/><rect x="1100.6" y="72.406" width="11.525" height="1.063" style="fill:#fff;"/><rect x="1111.27" y="72.406" width="11.525" height="1.063" style="fill:#fff;"/><rect x="1121.95" y="72.406" width="11.525" height="1.063" style="fill:#fff;"/><rect x="1132.63" y="72.406" width="11.525" height="1.063" style="fill:#fff;"/><rect x="1143.31" y="72.406" width="11.525" height="1.063" style="fill:#fff;"/><rect x="1153.99" y="72.406" width="11.525" height="1.063" style="fill:#fff;"/><rect x="1164.66" y="72.406" width="11.525" height="1.063" style="fill:#fff;"/><rect x="1175.34" y="72.406" width="11.525" height="1.063" style="fill:#fff;"/><rect x="1186.02" y="72.406" width="11.525" height="1.063" style="fill:#fff;"/><rect x="1196.69" y="72.406" width="11.525" height="1.063" style="fill:#fff;"/><path d="M790.204,279.718l46.269,-1.344l-23.166,-57.29l-8.391,15.715l18.363,-48.409l0.228,0l47.256,115.747c1.513,3.6 3.21,6.578 5.088,9.237c1.878,2.66 3.994,4.71 6.35,6.153c2.353,1.447 5.128,2.444 8.322,2.994l3.112,0.531l0,0.31l-66.834,0l0,-0.357l8.915,-1.375c4.425,-0.681 7.663,-1.862 9.713,-3.534c2.044,-1.672 3.069,-3.919 3.069,-6.759c0,-1.769 -0.41,-3.916 -1.222,-6.441c-0.813,-2.525 -2.594,-7.109 -5.338,-13.737c-0.168,-0.379 -0.422,-1.01 -0.756,-1.897c-0.337,-0.885 -0.703,-1.732 -1.094,-2.553l-1.934,-4.835l-47.95,-2.156Z" style="fill:#fff;fill-rule:nonzero;"/><path d="M992.798,195.934c-12.181,-2.441 -56.644,-4.891 -56.644,-4.891l44.413,0c3.822,0 8.009,0.153 12.556,0.469c4.544,0.318 8.628,0.712 12.247,1.184c3.615,0.475 6.612,1.028 8.99,1.656c8.525,2.216 15.05,6.175 19.569,11.891c4.522,5.712 6.785,12.8 6.785,21.262c0,5.813 -1.085,10.988 -3.254,15.535c-2.171,4.547 -5.365,8.384 -9.575,11.509c-4.212,3.125 -9.368,5.513 -15.462,7.153c-6.097,1.641 -12.972,2.463 -20.619,2.463l-27.669,0c0,0 19.422,-2.119 26.457,-3.569c15.25,-3.144 25.725,-12.797 25.725,-33.678c0,-20.881 -12.313,-28.738 -23.519,-30.984" style="fill:#fff;fill-rule:nonzero;"/><path d="M1012.23,275.417l8.269,17.287c15.985,29.191 39.747,30.61 39.747,30.61l-19.512,0c-19.597,0 -32.935,-3.991 -42.222,-23.947c-3.219,-7.194 -6.582,-14.703 -10.535,-22.153c-6.431,-12.125 -23.84,-13.05 -23.84,-13.05l27.331,-2.219c0,0 13.412,-1.569 20.762,13.472" style="fill:#fff;fill-rule:nonzero;"/><path d="M157.083,212.277c3.985,6.885 8.216,16.672 11.094,25.975l0,-49.475l-1.419,5.988c-1.756,7.262 -5.943,9.725 -9.975,9.725c-1.6,0 -4.625,-1.36 -9.068,-4.075c-0.907,-0.572 -1.807,-1.081 -2.71,-1.616c4.306,3.916 9.563,9.128 12.078,13.478" style="fill:#fff;fill-rule:nonzero;"/><path d="M115.132,322.293c-39.519,-19.038 -44.075,-57.941 -44.075,-57.941l0,61.191l0.159,0c0.869,-4.356 2.659,-7.722 5.359,-10.088c2.7,-2.368 5.985,-3.553 9.86,-3.553c2.019,0 4.175,0.366 6.465,1.088c2.294,0.728 5.619,2.1 9.985,4.119c4.678,2.29 8.931,4.05 12.597,5.34c-0.119,-0.056 -0.232,-0.097 -0.35,-0.156" style="fill:#fff;fill-rule:nonzero;"/><path d="M174.495,272.69c-1.422,-3.978 -3.422,-7.45 -6.006,-10.419c-3.309,-4.041 -7.316,-7.297 -12.016,-9.762c-4.703,-2.463 -12.168,-5.304 -22.4,-8.522l-6.047,-1.897l-3.796,-1.135c-0.672,-0.128 -1.938,-0.534 -3.8,-1.228c-6.819,-2.022 -12.129,-3.725 -15.929,-5.115c-3.796,-1.388 -6.896,-2.81 -9.3,-4.266c-2.403,-1.453 -4.253,-2.969 -5.543,-4.547c-2.791,-3.222 -4.185,-7.037 -4.185,-11.456c0,-2.338 0.491,-4.772 1.472,-7.297c0.781,-2.006 1.838,-3.812 3.044,-5.506c0.028,-0.041 0.056,-0.081 0.087,-0.125c0.282,-0.391 0.516,-0.816 0.822,-1.191c1.063,-1.297 2.244,-2.428 3.519,-3.434c0.019,-0.016 0.038,-0.031 0.056,-0.047c0.194,-0.153 0.388,-0.303 0.588,-0.447c3.49,-2.741 8.862,-5.766 17.047,-7.862c-0.35,-0.007 -0.707,-0.047 -1.057,-0.047c-7.803,0 -14.909,1.643 -21.315,4.928c-6.406,3.281 -11.394,7.844 -14.96,13.684c-3.565,5.841 -5.346,12.422 -5.346,19.747c0,6.063 1.6,11.619 4.806,16.672c2.169,3.6 4.737,6.569 7.709,8.903c2.972,2.334 7.066,4.678 12.288,7.009c4.65,2.216 13.022,5.304 25.112,9.282l7.753,2.562c6.353,2.085 11.353,3.881 14.997,5.397c3.644,1.516 6.616,3.003 8.913,4.453c2.3,1.453 4.175,3.031 5.622,4.738c3.15,3.853 4.728,8.178 4.728,12.972c0,3.587 -0.753,6.871 -2.2,9.868c-1.703,4.553 -5.278,11.472 -12.072,15.547c2.14,-0.547 4.222,-1.181 6.172,-2.015c5.606,-2.4 10.318,-6 14.143,-10.797c2.947,-3.475 5.222,-7.503 6.822,-12.082c1.6,-4.575 2.403,-9.137 2.403,-13.684c0,-4.609 -0.709,-8.903 -2.131,-12.881" style="fill:#fff;fill-rule:nonzero;"/><path d="M316.311,226.92c3.409,-3.469 5.997,-7.229 7.159,-9.407c1.163,-2.178 1.744,-4.722 1.744,-7.625c0,-4.737 -1.656,-8.622 -4.962,-11.897c-3.307,-3.268 -7.803,-5.309 -13.488,-6.106l-2.556,-0.359l0,-0.485l63.325,0l0,0.454l-1.55,0.156c-8.731,0.872 -21.056,11.272 -37.178,27.187l-56.222,54.56l43.728,-46.478Z" style="fill:#fff;fill-rule:nonzero;"/><path d="M451.363,279.718l46.268,-1.344l-23.165,-57.29l-8.391,15.715l18.363,-48.409l0.228,0l47.256,115.747c1.513,3.6 3.209,6.578 5.088,9.237c1.878,2.66 3.993,4.71 6.35,6.153c2.353,1.447 5.128,2.444 8.321,2.994l3.113,0.531l0,0.31l-66.834,0l0,-0.357l8.915,-1.375c4.425,-0.681 7.663,-1.862 9.713,-3.534c2.043,-1.672 3.068,-3.919 3.068,-6.759c0,-1.769 -0.409,-3.916 -1.221,-6.441c-0.813,-2.525 -2.594,-7.109 -5.338,-13.737c-0.169,-0.379 -0.422,-1.01 -0.756,-1.897c-0.338,-0.885 -0.703,-1.732 -1.094,-2.553l-1.934,-4.835l-47.95,-2.156Z" style="fill:#fff;fill-rule:nonzero;"/><path d="M308.472,235.97l34.353,68.168c1.856,3.597 3.837,6.578 5.969,9.238c2.134,2.656 4.446,4.706 6.937,6.153c2.494,1.447 5.363,2.444 8.613,2.991l3.162,0.534l0.028,0.309l-66.834,0l-0.035,-0.359l8.785,-1.372c4.359,-0.684 7.484,-1.862 9.372,-3.537c1.887,-1.672 2.697,-3.916 2.425,-6.76c-0.172,-1.765 -0.785,-3.912 -1.838,-6.44c-1.053,-2.525 -13.34,-26.522 -13.34,-26.522l-13.063,-26.328" style="fill:#fff;fill-rule:nonzero;"/><path d="M657.778,195.934c-12.181,-2.441 -56.644,-4.891 -56.644,-4.891l44.413,0c3.822,0 8.009,0.153 12.556,0.469c4.547,0.318 8.628,0.712 12.247,1.184c3.615,0.475 6.612,1.028 8.99,1.656c8.525,2.216 15.05,6.175 19.569,11.891c4.522,5.712 6.785,12.8 6.785,21.262c0,5.813 -1.085,10.988 -3.254,15.535c-2.171,4.547 -5.365,8.384 -9.575,11.509c-4.212,3.125 -9.368,5.513 -15.462,7.153c-6.097,1.641 -12.972,2.463 -20.619,2.463l-27.669,0c0,0 19.422,-2.119 26.457,-3.569c15.25,-3.144 25.725,-12.797 25.725,-33.678c0,-20.881 -12.313,-28.738 -23.519,-30.984" style="fill:#fff;fill-rule:nonzero;"/><path d="M1188.04,277.048l0,-12.225l0,-40.71c0,-8.084 1.047,-16.118 1.9,-18.703c0.853,-2.584 2.131,-4.812 3.837,-6.697c3.1,-3.787 7.75,-6.122 13.95,-7l3.025,-0.428l0,-0.244l-11.046,0l-40.419,0l-16.747,0l0,0.244l3.025,0.428c6.2,0.878 10.85,3.213 13.95,7c1.706,1.885 2.984,4.113 3.837,6.697c0.85,2.585 1.9,10.619 1.9,18.703l0,71.513c0,8.147 -1.615,14.419 -4.846,18.812c-3.229,4.397 -8.175,7.06 -14.841,7.985l-3.025,0.422l0,0.518l68.212,0l0,-0.518l-3.025,-0.422c-6.665,-0.925 -11.612,-3.588 -14.84,-7.985c-3.231,-4.393 -4.847,-10.665 -4.847,-18.812l0,-10.041l0,-8.537Z" style="fill:#fff;fill-rule:nonzero;"/></g></svg>